# xmcd
#
# Track frame offsets: 
#        150
#        18155
#        42220
#        65401
#        97848
#        119978
#        147148
#        165986
#        186148
#        198623
#        217048
#        225768
#        241651
#        260740
#        284238
#        304105
#
# Disc length: 4465 seconds
#
# Revision: 1
# Processed by: cddbd v1.5.1PL0 Copyright (c) Steve Scherf et al.
# Submitted via: ExactAudioCopy v0.90b4
#
DISCID=e3116f10
DTITLE=Toucans - ...by Request
DYEAR=1994
DGENRE=Steel Drum
TTITLE0=Me En' Fightin'
TTITLE1=Under The Sea - Octopus's Garden
TTITLE2=Mr. Chatterbox
TTITLE3=Keep On Movin'
TTITLE4=Cantina Band
TTITLE5=Low Rider
TTITLE6=Ob-La-Di, Ob-La-Da
TTITLE7=Here Comes The Sun
TTITLE8=Follow The Sun
TTITLE9=Cool Runnings
TTITLE10=Plaza Sesamo
TTITLE11=Sixty-Nine
TTITLE12=Baby Elephant Walk
TTITLE13=Cocacabana
TTITLE14=The Lion Sleeps Tonight
TTITLE15=Hey Jude
EXTD=YEAR: 1994
EXTT0=
EXTT1=
EXTT2=
EXTT3=
EXTT4=
EXTT5=
EXTT6=
EXTT7=
EXTT8=
EXTT9=
EXTT10=
EXTT11=
EXTT12=
EXTT13=
EXTT14=
EXTT15=
PLAYORDER=
